<svg xmlns="http://www.w3.org/2000/svg" xml:space="preserve" id="Слой_1" x="0" y="0" style="enable-background:new 0 0 422 424" version="1.1" viewBox="0 0 422 424"><style>.st1{fill:#494949}.st2{fill:#1f51a3}</style><path d="M247 382v40h26c29.8 0 54-27.7 54-60h-40c0 10.9-10 20-20 20h-20z" style="fill:#f65f59"/><path d="M274 306v-40h-20V146h-40v160zM326 54l9.9-10h-5.5l-4.4 5zM326 72l26.9-28h-5.5L326 66zM333 84l37.9-40h-5.5L327 84zM350 84l37.9-40h-5.5L344 84zM367 84l37.9-40h-5.5L361 84zM384 84l22-23v-6l-28 29zM401 84l5-5v-6l-11 11z" class="st1"/><path d="m188 53-9.9-10h5.5l4.4 5zM188 71l-26.9-28h5.5L188 65zM181 83l-37.9-40h5.5L187 83zM164 83l-37.9-40h5.5L170 83zM147 83l-37.9-40h5.5L153 83zM130 83 92.1 43h5.5L136 83zM113 83 75.1 43h5.5L119 83zM96 83 58.1 43h5.5L102 83zM79 83 48 50v-6l37 39zM62 83 48 68v-6l20 21zM48 83v-3l3 3z" class="st2"/><path d="M64 3v40c-12.7 0-14 7.3-14 20s1.3 20 14 20h80v40H64c-33.7-.3-60-26-60-60C4 28.7 29.8 3 64 3z" class="st1"/><path d="M340 4v40c-12.7 0-14 7.3-14 20s1.3 20 14 20h80v40h-80c-33.7-.3-60-26-60-60 0-34.3 25.8-60 60-60z" class="st2"/><path d="m247 387-4.4-5h-5.5l9.9 10zM247 404l-21.4-22h-5.5l26.9 28zM246 422l-38.4-40h-5.5l37.9 40zM229 422l-38.4-40h-5.5l37.9 40zM212 422l-38.4-40h-5.5l37.9 40zM195 422l-28-29v6l22 23zM178 422l-11-11v6l5 5z" class="st1"/></svg>